<?xml version="1.0" encoding="UTF-8" standalone="no"?>
<!-- Created with Inkscape (http://www.inkscape.org/) -->

<svg
   viewBox="0 0 42.697525 13.835977"
   version="1.1"
   id="svg1"
   xml:space="preserve"
   xmlns="http://www.w3.org/2000/svg"
   xmlns:svg="http://www.w3.org/2000/svg"><defs
     id="defs1" /><g
     id="layer2"
     transform="translate(625.84512,-397.01948)"><path
       id="path3-0"
       style="baseline-shift:baseline;display:inline;overflow:visible;vector-effect:none;fill:currentcolor;fill-opacity:1;stroke:none;stroke-width:0.1089;stroke-linecap:round;stroke-opacity:1;paint-order:markers fill stroke;enable-background:accumulate;stop-color:#000000"
       d="m -593.65705,397.01966 c -0.88114,0.0107 -1.55498,0.31429 -2.02106,0.91157 -0.47139,0.58657 -0.70693,1.32459 -0.70693,2.21382 0,0.86513 0.2331,1.59493 0.69918,2.18953 0.46068,0.60264 1.14606,0.90964 2.05672,0.92036 0.91602,-0.0107 1.60718,-0.31773 2.07326,-0.92036 0.46068,-0.59461 0.69091,-1.3244 0.69091,-2.18953 0,-0.89457 -0.23023,-1.635 -0.69091,-2.22157 -0.46608,-0.59193 -1.16633,-0.89311 -2.10117,-0.90382 z m -28.56775,0.004 c -0.15578,-0.007 -0.31253,-0.005 -0.46923,0.005 -1.04488,0.0673 -2.07033,0.49461 -2.52234,1.02422 -0.10343,0.12098 -0.17643,0.24859 -0.21135,0.37931 -0.0973,0.36447 0.0618,0.76365 0.24339,1.07744 0.42377,0.73242 1.37468,1.51075 2.35377,2.18291 0.9792,0.67205 1.98716,1.23518 2.52337,1.52239 0.0574,0.0308 0.1102,0.0484 0.15864,0.0522 0.0485,0.004 0.0937,-0.008 0.12765,-0.0357 0.034,-0.0281 0.0536,-0.0705 0.0594,-0.11886 0.006,-0.0483 -10e-4,-0.10348 -0.0196,-0.16587 -0.0124,-0.0414 -0.0414,-0.0788 -0.0822,-0.12092 -0.0407,-0.0421 -0.0938,-0.0872 -0.15598,-0.13445 -0.12462,-0.0941 -0.28614,-0.1955 -0.45578,-0.28423 -0.90806,-0.47499 -2.60472,-1.43404 -3.49692,-2.37557 -0.25414,-0.26832 -0.60805,-0.80604 -0.62995,-1.156 -0.004,-0.0559 0.0122,-0.15261 0.0444,-0.2496 0.0317,-0.0953 0.08,-0.19148 0.13589,-0.25838 1.34578,-0.84999 2.65009,-1.0467 3.52591,-0.56483 0.23766,0.13077 0.45004,0.29303 0.62269,0.48731 0.37454,0.42143 0.54533,1.32375 0.60978,2.18437 0.0644,0.86063 0.0281,1.68025 0.0129,1.94613 -0.004,0.0654 0.0199,0.13862 0.0625,0.18914 0.0426,0.0505 0.086,0.0869 0.1303,0.10792 0.0443,0.0211 0.0914,0.0261 0.13332,0.0103 0.0419,-0.0157 0.075,-0.0502 0.0966,-0.0956 0.0217,-0.0454 0.0335,-0.10275 0.0367,-0.17106 0.0253,-0.53104 0.0387,-1.42419 -0.0548,-2.2996 -0.0935,-0.87542 -0.2897,-1.73306 -0.70227,-2.19729 -0.21321,-0.23988 -0.47436,-0.43902 -0.76481,-0.59893 -0.39017,-0.21466 -0.84484,-0.3196 -1.31206,-0.34157 z m 12.80489,0.15245 v 5.92212 h 3.90312 l 0.11834,-0.17725 v -0.30128 h -3.46284 l 1e-5,-2.35024 h 3.05304 v -0.47801 h -3.05305 v -2.14147 h 3.38274 v -0.47387 z m 4.02146,5.74487 v 0.17725 h 0.51625 l 1.71979,-2.61587 1.72755,2.61587 h 0.63871 l -2.02881,-3.04581 1.94045,-2.87631 h -0.65061 l -1.62729,2.4908 -1.62316,-2.4908 h -0.65112 l 1.96061,2.87631 z m 4.79712,-5.74487 10e-6,5.92212 h 0.55862 v -2.61586 h 1.26504 c 0.57588,0.0107 1.09426,-0.10175 1.55494,-0.33745 0.46604,-0.23569 0.70596,-0.67493 0.71934,-1.31775 0.006,-0.46068 -0.12449,-0.8502 -0.38964,-1.16892 -0.13663,-0.14731 -0.33114,-0.26799 -0.58291,-0.36174 -0.25178,-0.0804 -0.57322,-0.12041 -0.96429,-0.1204 z m -13.09894,0.23254 c -0.28125,0.0129 -0.56358,0.13514 -0.79891,0.2713 -0.36622,0.21188 -0.74397,0.5559 -1.11415,0.96894 -0.37017,0.41304 -0.73265,0.89534 -1.06866,1.38492 -0.67206,0.97919 -1.2352,1.98714 -1.52239,2.52336 -0.0307,0.0574 -0.0484,0.1102 -0.0522,0.15866 -0.004,0.0484 0.008,0.0937 0.0357,0.12762 0.0281,0.0339 0.0705,0.0536 0.11885,0.0594 0.0483,0.006 0.10348,-5.9e-4 0.16587,-0.0191 0.0415,-0.0123 0.0788,-0.0419 0.12093,-0.0827 0.0421,-0.0407 0.0872,-0.0938 0.13436,-0.15606 0.0942,-0.12456 0.19548,-0.28614 0.28421,-0.45578 0.47499,-0.90808 1.43405,-2.60472 2.37558,-3.49695 0.26824,-0.2542 0.80604,-0.60752 1.156,-0.62942 0.0559,-0.003 0.15209,0.0117 0.24908,0.0439 0.0952,0.0316 0.1915,0.0801 0.25838,0.13591 0.85018,1.3459 1.04726,2.65051 0.56534,3.5264 -0.13077,0.2377 -0.29305,0.44954 -0.48731,0.62218 -0.42143,0.37455 -1.32368,0.54534 -2.18437,0.60979 -0.86068,0.0645 -1.68025,0.0281 -1.94613,0.0129 -0.0654,-0.004 -0.13861,0.0199 -0.18912,0.0625 -0.0505,0.0426 -0.087,0.0859 -0.10801,0.13023 -0.0211,0.0443 -0.0261,0.0919 -0.0103,0.13384 0.0157,0.042 0.0503,0.0744 0.0956,0.0961 0.0454,0.0217 0.10222,0.034 0.17053,0.0372 0.53103,0.0253 1.4247,0.0383 2.30012,-0.0553 0.87541,-0.0936 1.73307,-0.29024 2.19729,-0.70281 0.23988,-0.21318 0.43905,-0.4738 0.59892,-0.76428 0.38165,-0.69364 0.41657,-1.58958 0.25477,-2.40141 -0.16181,-0.81183 -0.51838,-1.54061 -0.94206,-1.90221 -0.12108,-0.10334 -0.2486,-0.17646 -0.37931,-0.21135 -0.0911,-0.0243 -0.18476,-0.0322 -0.27853,-0.0279 z m 20.06338,0.0847 c 1.44632,0.0348 2.18288,0.91861 2.20968,2.65152 0,0.71246 -0.17279,1.32304 -0.51831,1.83193 -0.35088,0.52229 -0.90933,0.78924 -1.67535,0.79995 -0.76875,-0.0108 -1.32861,-0.27766 -1.67949,-0.79995 -0.1821,-0.24105 -0.3134,-0.51956 -0.39377,-0.83561 -0.0884,-0.31873 -0.13229,-0.6508 -0.13229,-0.99632 0,-0.71781 0.17806,-1.33516 0.53433,-1.85208 0.35088,-0.51961 0.90251,-0.78605 1.6552,-0.79944 z m -6.40581,0.15658 h 1.4459 c 1.02587,0.005 1.53601,0.38425 1.53066,1.13688 -0.006,0.48747 -0.1526,0.81425 -0.44183,0.9803 -0.30271,0.16339 -0.72017,0.24255 -1.25316,0.2372 h -1.28157 z m -18.88567,5.21622 c -0.0369,10e-4 -0.0708,0.0151 -0.0961,0.0372 -0.0254,0.0221 -0.0425,0.0509 -0.0558,0.0827 -0.0267,0.0636 -0.0383,0.14145 -0.0486,0.22222 -0.0103,0.0807 -0.019,0.16416 -0.0346,0.23512 -0.0156,0.071 -0.0387,0.12773 -0.0698,0.1571 -0.0471,0.0445 -0.15463,0.0744 -0.27233,0.0971 -0.1177,0.0228 -0.24391,0.0405 -0.34002,0.0842 -0.0235,0.008 -0.0498,0.017 -0.077,0.0284 -0.0588,0.0247 -0.0911,0.0809 -0.0884,0.13487 0.003,0.0531 0.0343,0.10312 0.0832,0.13694 0.0231,0.0215 0.0504,0.037 0.0806,0.0481 l 10e-4,10e-4 10e-4,10e-4 3.7e-4,3.5e-4 c 0.0956,0.0332 0.21862,0.0358 0.33227,0.0481 0.11368,0.0123 0.21384,0.0362 0.2589,0.0842 0.0652,0.0697 0.0824,0.23132 0.10439,0.38033 0.011,0.0745 0.0242,0.14551 0.0548,0.2036 0.0305,0.0582 0.0881,0.10293 0.16381,0.10182 0.078,-10e-4 0.13415,-0.0542 0.16433,-0.11938 0.0302,-0.0652 0.044,-0.14589 0.0563,-0.22944 0.0124,-0.0836 0.0227,-0.17012 0.0403,-0.24392 0.0176,-0.0738 0.0435,-0.1327 0.078,-0.16433 0.0702,-0.0643 0.22857,-0.0647 0.37466,-0.0661 0.073,-7e-4 0.14201,-0.002 0.19999,-0.0233 0.029,-0.0106 0.0565,-0.0276 0.0754,-0.0537 0.008,-0.0108 0.006,-0.0271 0.0103,-0.0403 l 0.0192,0.006 -0.004,-0.0625 c -0.004,-0.0731 -0.0488,-0.12721 -0.10593,-0.15761 -0.0571,-0.0305 -0.12624,-0.0447 -0.19845,-0.0568 -0.14439,-0.0244 -0.30064,-0.0434 -0.37258,-0.10801 -0.0328,-0.0304 -0.0584,-0.0881 -0.0749,-0.16175 -0.0166,-0.0736 -0.0256,-0.16064 -0.0367,-0.24495 -0.011,-0.0843 -0.0233,-0.16609 -0.0517,-0.23253 -0.0283,-0.0665 -0.0826,-0.1217 -0.15963,-0.12512 -0.005,-1.5e-4 -0.01,-1.4e-4 -0.014,8e-5 z m -2.49546,1.51722 c -0.59875,0.008 -1.29431,0.0491 -1.9265,0.16382 -0.63218,0.11474 -1.2016,0.30189 -1.54977,0.61132 -0.11994,0.10659 -0.22978,0.22488 -0.32963,0.35303 -0.0998,0.12813 -0.18981,0.26608 -0.26975,0.41134 -0.38164,0.69363 -0.41606,1.58958 -0.25425,2.40141 0.16181,0.81183 0.51837,1.5406 0.94207,1.90219 0.12097,0.10341 0.24803,0.17646 0.37878,0.21137 0.36448,0.0973 0.76421,-0.0624 1.07798,-0.24392 0.73243,-0.42376 1.51076,-1.37414 2.18281,-2.35335 0.67206,-0.97919 1.23468,-1.98714 1.52188,-2.52336 0.0307,-0.0574 0.0489,-0.11021 0.0527,-0.15864 0.004,-0.0484 -0.008,-0.0937 -0.0357,-0.12764 -0.0281,-0.0339 -0.0705,-0.0536 -0.11885,-0.0594 -0.0483,-0.006 -0.1035,10e-4 -0.16589,0.0197 -0.0414,0.0123 -0.0793,0.0414 -0.12144,0.0822 -0.0421,0.0407 -0.0872,0.0938 -0.13436,0.15607 -0.0942,0.12448 -0.19497,0.28613 -0.2837,0.45577 -0.47499,0.90808 -1.43404,2.60473 -2.37557,3.49695 -0.26823,0.25419 -0.80602,0.60803 -1.156,0.62994 -0.0559,0.003 -0.15267,-0.0118 -0.2496,-0.0439 -0.0953,-0.0316 -0.19098,-0.08 -0.25786,-0.13592 -0.85008,-1.34584 -1.04776,-2.65054 -0.56585,-3.5264 0.13076,-0.23768 0.29356,-0.44952 0.48783,-0.62218 0.42142,-0.37453 1.32316,-0.54579 2.18383,-0.61029 0.86069,-0.0645 1.68078,-0.0281 1.94666,-0.0129 0.0654,0.004 0.13861,-0.0199 0.18913,-0.0625 0.0505,-0.0426 0.0865,-0.0859 0.10749,-0.13023 0.021,-0.0443 0.0266,-0.0919 0.0109,-0.13385 -0.0156,-0.042 -0.0508,-0.0739 -0.0962,-0.0956 -0.0453,-0.0217 -0.10172,-0.0345 -0.17002,-0.0377 -0.26551,-0.0126 -0.62195,-0.0223 -1.02113,-0.017 z m 3.70469,0.22376 c -0.008,-7e-5 -0.0149,-9e-5 -0.0222,4.6e-4 -0.0635,0.005 -0.11752,0.0447 -0.13952,0.10335 -0.022,0.0587 -0.0183,0.13177 0.007,0.21757 0.0124,0.0414 0.0414,0.0788 0.0822,0.12092 0.0407,0.0421 0.0944,0.0872 0.1566,0.13434 0.12462,0.0941 0.28564,0.19496 0.45526,0.2837 0.90808,0.47499 2.60526,1.43403 3.49747,2.37557 0.25412,0.26831 0.60752,0.80655 0.62942,1.15651 0.004,0.0559 -0.0117,0.15209 -0.0439,0.24908 -0.0317,0.0953 -0.08,0.19149 -0.1359,0.25838 -1.34584,0.85009 -2.65056,1.04725 -3.52641,0.56535 -0.23766,-0.13077 -0.44953,-0.29304 -0.62217,-0.48732 -0.37454,-0.42142 -0.54586,-1.32368 -0.6103,-2.18437 -0.0645,-0.86066 -0.0281,-1.68076 -0.0129,-1.94664 0.004,-0.0654 -0.0199,-0.13862 -0.0625,-0.18914 -0.0426,-0.0505 -0.0855,-0.0864 -0.12976,-0.10743 -0.0443,-0.0211 -0.0919,-0.0266 -0.13385,-0.0108 -0.0419,0.0157 -0.0744,0.0507 -0.0961,0.0961 -0.0217,0.0454 -0.034,0.1017 -0.0372,0.17 -0.0253,0.53104 -0.0382,1.42465 0.0553,2.30012 0.0935,0.87548 0.2897,1.73306 0.70227,2.19729 0.21322,0.23989 0.47385,0.43903 0.76429,0.59893 0.69364,0.38164 1.5901,0.41709 2.40193,0.25528 0.81183,-0.16181 1.54009,-0.51888 1.90169,-0.94257 0.10334,-0.12108 0.17698,-0.24809 0.21187,-0.37879 0.0973,-0.36447 -0.0623,-0.7642 -0.24391,-1.07797 -0.42376,-0.73244 -1.37414,-1.51083 -2.35333,-2.18284 -0.97918,-0.672 -1.98713,-1.23468 -2.52334,-1.52188 -0.0627,-0.0337 -0.12002,-0.0522 -0.17208,-0.0532 z m 19.89387,0.0129 c -0.65893,0.0107 -1.15844,0.16854 -1.49861,0.47387 -0.34018,0.31338 -0.51005,0.68456 -0.51005,1.11311 0,0.28391 0.0545,0.51997 0.16433,0.70745 0.1045,0.19284 0.23867,0.34921 0.40204,0.46974 0.1768,0.12052 0.37222,0.21562 0.58653,0.28525 0.21159,0.0723 0.42973,0.13557 0.65474,0.18914 0.23567,0.0509 0.46063,0.10249 0.6749,0.15606 0.20891,0.0563 0.3991,0.13157 0.5705,0.22531 0.17413,0.0857 0.31069,0.20109 0.4098,0.34572 0.0991,0.14732 0.14883,0.33603 0.14883,0.56637 -10e-6,0.32944 -0.11536,0.6118 -0.34572,0.84749 -0.24106,0.24642 -0.62819,0.3724 -1.16117,0.37776 -0.46068,0.005 -0.84493,-0.1042 -1.1529,-0.32918 -0.31074,-0.22499 -0.49412,-0.59764 -0.55036,-1.11724 h -0.54208 c 0.006,0.64013 0.21145,1.11942 0.61857,1.43815 0.38838,0.32408 0.89852,0.48628 1.53065,0.48628 1.41952,-0.0161 2.1397,-0.59191 2.16111,-1.72755 0,-0.28659 -0.0463,-0.52742 -0.14004,-0.72295 -0.091,-0.18749 -0.21702,-0.34147 -0.37776,-0.46199 -0.15802,-0.12589 -0.33904,-0.22482 -0.5426,-0.29714 -0.20356,-0.0696 -0.41789,-0.12758 -0.64285,-0.17311 -0.21966,-0.0482 -0.43399,-0.0979 -0.64286,-0.14883 -0.21163,-0.0482 -0.40568,-0.10804 -0.58239,-0.18035 -0.17417,-0.0696 -0.32137,-0.16473 -0.44184,-0.28525 -0.12862,-0.11518 -0.20921,-0.26674 -0.24133,-0.45424 -0.0482,-0.32408 0.0404,-0.61997 0.2651,-0.8878 0.22497,-0.26784 0.62024,-0.4088 1.18546,-0.4222 0.3937,0 0.73263,0.0995 1.01648,0.29766 0.2866,0.21427 0.43235,0.54635 0.4377,0.99632 h 0.53433 c 0.006,-0.49818 -0.15633,-0.91474 -0.48576,-1.24954 -0.33482,-0.34015 -0.83587,-0.51296 -1.50275,-0.51831 z m 6.77375,0 c -0.92676,0.0107 -1.61552,0.30659 -2.06551,0.8878 -0.4473,0.5705 -0.67076,1.30321 -0.67076,2.1978 0.006,1.04725 0.25153,1.83355 0.73898,2.35851 0.47143,0.52764 1.08873,0.79117 1.85208,0.79117 0.57589,-0.005 1.04213,-0.11251 1.39836,-0.32143 0.34548,-0.20891 0.61635,-0.49127 0.81183,-0.8475 v 1.01234 h 0.47801 v -3.06131 h -2.53111 v 0.47801 h 1.99678 c 0.006,0.44462 -0.0791,0.85295 -0.25322,1.22524 -0.20356,0.3723 -0.46761,0.63874 -0.79168,0.79944 -0.32942,0.15803 -0.66154,0.2372 -0.99632,0.23719 -0.6803,-0.0107 -1.20643,-0.25737 -1.57872,-0.73949 -0.37768,-0.47139 -0.56637,-1.04141 -0.56637,-1.711 -0.005,-0.85173 0.1698,-1.53472 0.52607,-2.04897 0.35619,-0.51693 0.92136,-0.77858 1.6955,-0.78394 0.45529,0 0.85312,0.12214 1.19321,0.36587 0.34021,0.24105 0.56217,0.58667 0.66662,1.03663 h 0.57465 c -0.13127,-0.6321 -0.41597,-1.10463 -0.85525,-1.418 -0.44467,-0.30534 -0.98576,-0.45837 -1.62316,-0.45837 z m -18.36839,0.15658 v 5.92212 l 2.02521,-1e-5 c 0.39904,0 0.77887,-0.0468 1.14049,-0.14055 0.36158,-0.0937 0.68016,-0.2883 0.95602,-0.58292 0.26784,-0.30802 0.45712,-0.66131 0.56688,-1.0604 0.0992,-0.3964 0.14832,-0.79122 0.14832,-1.18494 0.005,-0.41783 -0.0603,-0.86528 -0.19689,-1.34203 -0.13666,-0.48212 -0.4001,-0.87214 -0.79117,-1.16944 -0.26787,-0.20356 -0.55549,-0.32904 -0.86351,-0.37724 -0.31069,-0.0429 -0.63073,-0.0646 -0.96015,-0.0646 z m 5.33714,0 10e-6,5.92211 4.02146,1e-5 -1e-5,-0.47801 h -3.46283 v -2.35024 l 3.05356,-10e-6 v -0.478 h -3.05356 V 405.251 h 3.38273 l 10e-6,-0.47439 z m 9.03976,0 v 5.92212 h 0.55811 v -5.92212 z m 7.26364,0 v 5.92212 h 0.55811 v -5.16661 h 0.016 l 3.40703,5.16662 0.65061,-10e-6 -1e-5,-5.92211 h -0.56223 v 5.17487 l -0.016,-10e-6 -3.42305,-5.17487 z m -21.08192,0.47439 h 1.34152 c 0.25178,0 0.49843,0.0121 0.7395,0.0362 0.23567,0.0268 0.44176,0.0895 0.61856,0.18862 0.40984,0.2357 0.68739,0.55571 0.83199,0.96015 0.13126,0.41247 0.19397,0.844 0.18862,1.29397 0.006,0.41515 -0.0603,0.8341 -0.19688,1.25729 -0.13926,0.41784 -0.40339,0.7393 -0.79169,0.96429 -0.21966,0.10981 -0.44166,0.18367 -0.66663,0.22117 -0.23035,0.0375 -0.47169,0.0534 -0.72346,0.0481 l -1.34153,2e-5 z" /></g></svg>
