<?xml version="1.0" encoding="UTF-8" standalone="no"?>
<!-- Created with Inkscape (http://www.inkscape.org/) -->

<svg
   width="31.206623mm"
   height="31.286205mm"
   viewBox="0 0 31.206623 31.286205"
   version="1.1"
   id="svg1"
   xml:space="preserve"
   xmlns="http://www.w3.org/2000/svg"
   xmlns:svg="http://www.w3.org/2000/svg"><defs
     id="defs1" /><g
     id="g28"
     style="display:inline"
     transform="translate(-248.90954,-19.939445)"><path
       d="m 251.60088,49.520996 c -0.74669,-1.088322 -1.34984,-2.69407 -1.56989,-4.179499 -0.11487,-0.77541 -0.0161,-2.329022 0.18856,-2.965679 0.29947,-0.931627 0.93338,-1.993892 1.48793,-2.493385 0.28768,-0.258983 0.99365,-0.697329 1.57407,-0.977098 1.66902,-0.804501 5.0408,-1.724695 8.00011,-2.183316 0.96171,-0.149046 1.14889,-0.119456 1.10185,0.17416 -0.0534,0.333331 -0.25641,0.426066 -1.37512,0.628228 -2.5138,0.454257 -4.69153,1.004069 -6.17425,1.55879 -1.51001,0.564941 -2.35858,1.058934 -2.84818,1.658073 -1.67212,2.046215 -1.47713,4.889323 0.54271,7.913267 0.57078,0.854548 0.75962,1.050705 1.14215,1.186573 0.6782,0.240788 1.21853,0.102422 2.12397,-0.543855 1.0128,-0.722917 1.90314,-1.857706 3.29628,-4.201189 0.81508,-1.371099 1.35655,-2.427394 3.03592,-5.922415 0.30601,-0.636854 0.67242,-1.239295 0.85059,-1.398512 0.13565,-0.121094 0.5184,-0.167399 0.60322,-0.07285 0.12302,0.137134 0.0404,0.396518 -0.47274,1.484825 -1.66524,3.531485 -3.47213,6.74682 -4.86015,8.648472 -0.78735,1.078722 -1.20756,1.560276 -1.91476,2.194274 -0.75517,0.67688 -1.15888,0.923715 -1.79698,1.097752 -0.51712,0.141097 -0.78941,0.131933 -1.21264,-0.04083 -0.586,-0.239194 -1.18797,-0.786328 -1.72271,-1.565728 z"
       style="fill:#ff4c93;fill-opacity:1;stroke-width:0.222958"
       id="path1" /><path
       d="m 250.61412,22.761837 c 1.08833,-0.746695 2.69407,-1.349839 4.1795,-1.569892 0.77541,-0.114868 2.32903,-0.0161 2.96568,0.188565 0.93163,0.299463 1.99389,0.933379 2.49339,1.487922 0.25898,0.287679 0.69733,0.993657 0.9771,1.57407 0.8045,1.669021 1.72469,5.040799 2.18331,8.000112 0.14905,0.961714 0.11946,1.148894 -0.17416,1.101849 -0.33333,-0.05343 -0.42607,-0.256411 -0.62823,-1.37512 -0.45425,-2.513795 -1.00407,-4.69153 -1.55879,-6.174253 -0.56494,-1.510002 -1.05893,-2.358573 -1.65807,-2.848172 -2.04622,-1.672122 -4.88932,-1.477137 -7.91327,0.542706 -0.85455,0.570786 -1.0507,0.759619 -1.18657,1.142149 -0.24079,0.678198 -0.10242,1.218532 0.54385,2.123968 0.72292,1.012805 1.85771,1.903144 4.20119,3.296288 1.3711,0.815074 2.4274,1.356544 5.92242,3.035917 0.63685,0.306011 1.23929,0.672423 1.39851,0.850587 0.12109,0.135655 0.1674,0.518398 0.0729,0.603219 -0.13713,0.123025 -0.39652,0.04045 -1.48482,-0.472735 -3.53149,-1.665239 -6.74682,-3.472129 -8.64848,-4.86015 -1.07872,-0.78735 -1.56027,-1.207562 -2.19427,-1.91476 -0.67688,-0.755177 -0.92371,-1.158879 -1.09775,-1.796987 -0.1411,-0.517113 -0.13193,-0.789401 0.0408,-1.212638 0.2392,-0.585992 0.78633,-1.187966 1.56573,-1.722704 z"
       style="fill:#ffcc00;fill-opacity:1;stroke-width:0.222958"
       id="path25" /><path
       d="m 278.41156,48.351878 c -1.08832,0.746695 -2.69407,1.349838 -4.1795,1.569892 -0.77541,0.114868 -2.32902,0.0161 -2.96568,-0.188565 -0.93162,-0.299463 -1.99389,-0.933379 -2.49338,-1.487922 -0.25898,-0.287679 -0.69733,-0.993657 -0.9771,-1.57407 -0.8045,-1.669021 -1.72469,-5.040799 -2.18332,-8.000112 -0.14904,-0.961715 -0.11945,-1.148895 0.17416,-1.101849 0.33334,0.05343 0.42607,0.256411 0.62823,1.37512 0.45426,2.513794 1.00407,4.69153 1.55879,6.174253 0.56494,1.510002 1.05894,2.358573 1.65808,2.848172 2.04621,1.672122 4.88932,1.477137 7.91326,-0.542706 0.85455,-0.570786 1.05071,-0.759619 1.18658,-1.142149 0.24078,-0.678198 0.10242,-1.218532 -0.54386,-2.123968 -0.72292,-1.012805 -1.8577,-1.903144 -4.20119,-3.296288 -1.3711,-0.815074 -2.42739,-1.356544 -5.92241,-3.035917 -0.63686,-0.306011 -1.2393,-0.672423 -1.39852,-0.850587 -0.12109,-0.135655 -0.16739,-0.518398 -0.0729,-0.603219 0.13714,-0.123025 0.39652,-0.04045 1.48483,0.472735 3.53148,1.665239 6.74682,3.472129 8.64847,4.86015 1.07872,0.78735 1.56028,1.207562 2.19427,1.91476 0.67688,0.755177 0.92372,1.158878 1.09776,1.796987 0.14109,0.517113 0.13193,0.789401 -0.0408,1.212638 -0.23919,0.585992 -0.78633,1.187966 -1.56573,1.722704 z"
       style="fill:#e10000;fill-opacity:1;stroke-width:0.222958"
       id="path26" /><path
       d="m 277.26672,21.644088 c 0.74669,1.088324 1.34983,2.694071 1.56989,4.1795 0.11487,0.77541 0.0161,2.329023 -0.18857,2.965679 -0.29946,0.931628 -0.93338,1.993892 -1.48792,2.493385 -0.28768,0.258983 -0.99366,0.69733 -1.57407,0.977099 -1.66902,0.804501 -5.0408,1.724695 -8.00011,2.183316 -0.96172,0.149045 -1.1489,0.119456 -1.10185,-0.174161 0.0534,-0.33333 0.25641,-0.426066 1.37512,-0.628227 2.51379,-0.454258 4.69153,-1.004069 6.17425,-1.558791 1.51,-0.56494 2.35858,-1.058934 2.84817,-1.658072 1.67213,-2.046215 1.47714,-4.889323 -0.5427,-7.913267 -0.57079,-0.854548 -0.75962,-1.050705 -1.14215,-1.186573 -0.6782,-0.240788 -1.21853,-0.102422 -2.12397,0.543854 -1.0128,0.722918 -1.90314,1.857706 -3.29629,4.20119 -0.81507,1.371099 -1.35654,2.427393 -3.03591,5.922415 -0.30601,0.636853 -0.67243,1.239294 -0.85059,1.398511 -0.13566,0.121094 -0.5184,0.1674 -0.60322,0.07285 -0.12303,-0.137133 -0.0405,-0.396517 0.47273,-1.484824 1.66524,-3.531485 3.47213,-6.746821 4.86015,-8.648473 0.78736,-1.078722 1.20757,-1.560275 1.91476,-2.194273 0.75518,-0.676881 1.15888,-0.923715 1.79699,-1.097752 0.51711,-0.141098 0.7894,-0.131933 1.21264,0.04083 0.58599,0.239193 1.18797,0.786327 1.72271,1.565726 z"
       style="fill:#00b6e5;fill-opacity:1;stroke-width:0.222958"
       id="path27" /><path
       d="m 262.98555,35.148983 c 0.7836,-0.214686 0.87566,-0.315262 0.97734,-1.06767 0.0342,-0.252707 0.0966,-0.500837 0.13884,-0.551406 0.19476,-0.233295 0.6176,-0.200733 0.75136,0.05789 0.0371,0.07163 0.10459,0.351097 0.15006,0.621193 0.12045,0.714889 0.2756,0.893038 0.85633,0.983585 0.6267,0.09773 0.82518,0.243879 0.82412,0.606926 -7.5e-4,0.259354 -0.16014,0.348105 -0.70709,0.393762 -0.68307,0.05701 -0.82429,0.203082 -0.94366,0.97595 -0.0888,0.575035 -0.20233,0.731323 -0.54718,0.753311 -0.35166,0.02247 -0.44379,-0.08949 -0.51886,-0.630197 -0.0666,-0.479191 -0.17783,-0.740912 -0.35583,-0.836839 -0.0659,-0.03547 -0.36365,-0.09526 -0.6618,-0.132879 -0.42871,-0.05395 -0.56995,-0.09637 -0.67527,-0.202318 -0.12746,-0.128147 -0.17029,-0.405623 -0.0924,-0.597646 z"
       style="fill:#4ea400;fill-opacity:1;stroke-width:0.222958"
       id="path28" /></g></svg>
